<?xml version="1.0" encoding="utf-8"?>
<!-- Generator: Adobe Illustrator 24.0.1, SVG Export Plug-In . SVG Version: 6.00 Build 0)  -->
<svg version="1.1" id="Capa_1" xmlns="http://www.w3.org/2000/svg" xmlns:xlink="http://www.w3.org/1999/xlink" x="0px" y="0px"
	 viewBox="0 0 180.8 38" style="enable-background:new 0 0 180.8 38;" xml:space="preserve">
<style type="text/css">
	.st0{opacity:0.75;}
	.st1{fill:#FFFFFF;}
	.st2{fill:#FFDD00;}
	.st3{fill:#F3F4F7;}
	.st4{fill:#E7E9EF;}
	.st5{fill:none;}
	.st6{fill:#0F265C;}
	.st7{opacity:0.8;}
	.st8{fill:none;stroke:#FFDD00;stroke-width:3;stroke-miterlimit:10;}
	.st9{fill:#72787A;}
	.st10{fill:#F8F8F8;}
	.st11{fill:#F1F1F2;}
	.st12{fill:#4A4A50;}
	.st13{fill:#636569;}
	.st14{fill:#2F7ABF;}
	.st15{fill:#FFC500;}
	.st16{fill:none;stroke:#B3B3B3;stroke-width:0.5;stroke-miterlimit:10;}
	.st17{fill:none;stroke:#0F265C;stroke-miterlimit:10;}
	.st18{fill:#C1272D;}
	.st19{fill:#D4D8E1;}
	.st20{fill:none;stroke:#0F265C;stroke-width:2;stroke-miterlimit:10;}
	.st21{fill:#10133F;}
	.st22{fill:none;stroke:#FFFFFF;stroke-width:2;stroke-linecap:round;stroke-miterlimit:10;}
	.st23{fill:none;stroke:#0F265C;stroke-width:2;stroke-linecap:round;stroke-miterlimit:10;}
	.st24{fill:none;stroke:#0F265C;stroke-width:3;stroke-miterlimit:10;}
	.st25{opacity:0.9;}
	.st26{fill:#1B2D54;}
</style>
<g>
	<g>
		<path class="st6" d="M110.4,21.9h-3.3v15.8h3.3L110.4,21.9L110.4,21.9z M93,21.9h-3.4v15.8H93v-6.5h6.6v6.5h3.3V21.9h-1.6
			c-0.9,0-1.7,0.8-1.7,1.7v4.5H93V21.9z M68.7,21.9h-3.3v15.8h3.3V21.9z M55.8,25c2.3,0,3.4,0.7,3.4,2.3c0,1.6-1.1,2.3-3.4,2.3h-2.5
			V25H55.8z M56.3,21.9h-6.4v15.8h3.4v-5h3c1.8,0,3.3-0.5,4.5-1.5c1.1-1,1.7-2.3,1.7-4c0-1.6-0.6-2.9-1.7-3.9
			C59.7,22.4,58.2,21.9,56.3,21.9 M59.5,11.1c0,1.3-1,1.8-2.8,1.8h-3.4V9.4h3.4C58.6,9.4,59.5,10,59.5,11.1 M59.1,5
			c0,1.1-0.9,1.6-2.6,1.6h-3.2V3.3h3.1C58.3,3.3,59.1,3.8,59.1,5 M60.9,7.8C62,7,62.5,5.9,62.5,4.6c0-2.8-2.1-4.4-5.5-4.4h-7.1V16
			h7.5c1.6,0,3-0.4,3.9-1.3c1-0.9,1.5-2,1.5-3.4C62.9,10,62.2,8.8,60.9,7.8 M73.9,10H70l2-5.2L73.9,10z M76.3,16h3.5L74,1.3
			c-0.3-0.7-0.9-1.1-1.6-1.1h-2L64.2,16h3.5l1.2-3.1H75L76.3,16z M80,21.7c-2.4,0-4.3,0.7-5.9,2.3c-1.6,1.5-2.4,3.5-2.4,5.9
			c0,2.4,0.8,4.4,2.4,5.9c1.6,1.5,3.6,2.2,6,2.2c2.7,0,4.8-1,6.4-3l-2.2-2.4c-1.1,1.5-2.5,2.2-4.3,2.2c-1.4,0-2.5-0.5-3.4-1.4
			c-0.9-0.9-1.4-2.1-1.4-3.7c0-1.5,0.5-2.8,1.4-3.6c0.9-0.9,2-1.4,3.3-1.4c1.2,0,2.3,0.4,3.2,1.1c0.7,0.5,1.6,0.4,2.2-0.2l1-1.1
			C84.7,22.7,82.6,21.7,80,21.7 M92.9,16h3V0.2h-3.3V11l-5.9-9.9c-0.3-0.5-0.9-0.8-1.5-0.8h-3.1V16h3.4V5.4l5.9,9.8
			C91.8,15.7,92.3,16,92.9,16 M103.9,11.8c-0.9-0.9-1.4-2.1-1.4-3.7c0-1.5,0.5-2.7,1.4-3.6c0.9-0.9,2-1.4,3.3-1.4
			c1.2,0,2.3,0.4,3.2,1.1c0.7,0.5,1.6,0.4,2.2-0.2l1-1.1c-1.6-2-3.7-3-6.3-3c-2.4,0-4.3,0.7-5.9,2.3C99.8,3.7,99,5.7,99,8.2
			c0,2.4,0.8,4.4,2.4,5.9c1.6,1.5,3.6,2.2,6,2.2c2.7,0,4.8-1,6.4-3l-2.2-2.4c-1.1,1.5-2.5,2.2-4.3,2.2
			C105.9,13.2,104.8,12.7,103.9,11.8 M117.6,21.9h-3.1v15.8h3.4V27.1l5.9,9.8c0.3,0.5,0.9,0.8,1.5,0.8h3V21.9h-3.3v10.7l-5.9-9.9
			C118.7,22.3,118.2,21.9,117.6,21.9 M128.4,8.1c0,1.4-0.4,2.6-1.3,3.6c-0.8,1-2,1.4-3.4,1.4c-1.5,0-2.6-0.5-3.5-1.4
			c-0.9-1-1.3-2.1-1.3-3.6c0-1.4,0.4-2.6,1.3-3.5c0.9-1,2-1.4,3.5-1.4c1.4,0,2.5,0.5,3.4,1.5C127.9,5.6,128.4,6.8,128.4,8.1
			 M129.4,14c1.6-1.6,2.4-3.5,2.4-5.9c0-2.3-0.8-4.3-2.4-5.8c-1.6-1.6-3.5-2.3-5.8-2.3c-2.3,0-4.2,0.8-5.8,2.3
			c-1.6,1.5-2.3,3.5-2.3,5.8c0,2.4,0.8,4.3,2.3,5.9c1.6,1.5,3.5,2.3,5.8,2.3C125.9,16.3,127.8,15.5,129.4,14 M136.2,33.5
			c-0.9-0.9-1.4-2.1-1.4-3.7c0-1.5,0.5-2.8,1.4-3.6c0.9-0.9,2-1.4,3.3-1.4c1.2,0,2.3,0.4,3.2,1.1c0.7,0.5,1.6,0.4,2.2-0.2l1-1.1
			c-1.6-2-3.7-3-6.3-3c-2.4,0-4.3,0.7-5.9,2.3c-1.6,1.5-2.4,3.5-2.4,5.9c0,2.4,0.8,4.4,2.4,5.9c1.6,1.5,3.6,2.2,6,2.2
			c2.7,0,4.8-1,6.4-3l-2.2-2.4c-1.1,1.5-2.5,2.2-4.3,2.2C138.2,34.9,137.1,34.4,136.2,33.5 M159.2,37.8h3.3V21.9h-1.6
			c-0.9,0-1.7,0.8-1.7,1.7v4.5h-6.6v-6.2h-3.4v15.8h3.4v-6.5h6.6V37.8z M174.9,31.7H171l2-5.2L174.9,31.7z M180.8,37.8L175,23
			c-0.3-0.7-0.9-1.1-1.6-1.1h-2l-6.2,15.8h3.5l1.2-3.1h6.1l1.3,3.1H180.8z"/>
		<path class="st2" d="M23.6,0.2H0v24.9c0,6.9,5.6,12.6,12.6,12.6h24.9V0.2H23.6z"/>
		<polygon class="st6" points="31.3,19 25.6,19 25.6,12.1 18.8,12.1 18.8,6.5 31.3,6.5 		"/>
	</g>
</g>
</svg>
